<svg xmlns="http://www.w3.org/2000/svg" viewBox="0 0 279.96 37.62"><defs><style>.cls-1{fill:#009b4b;}</style></defs><title>logoCannaetix</title><g id="Layer_2" data-name="Layer 2"><g id="Layer_1-2" data-name="Layer 1"><path class="cls-1" d="M23.56,28.35a23.58,23.58,0,0,0,13.73-7.83,22.83,22.83,0,0,0-11.94,3.4C28,20.25,31.77,13.64,31.42,5.45a30.84,30.84,0,0,0-9.87,18.31c.06-4-.69-13.71-8.41-21.44-1.86,10.77,3.11,19.11,5.47,22.37A30.91,30.91,0,0,0,0,15.4C4.43,22.3,11.28,25.56,15.6,27a22.75,22.75,0,0,0-11.72,4.1A23.61,23.61,0,0,0,19.61,29.6a14.23,14.23,0,0,0-5.37,6.6,15,15,0,0,0,7.43-5.71l2.08,6.56c0,.1.22.14.42.07s.33-.19.3-.3l-2.08-6.56a15.1,15.1,0,0,0,9.37.39A14.25,14.25,0,0,0,23.56,28.35Z"/><path class="cls-1" d="M53.41,12.2a8.75,8.75,0,0,1,5.22,1.5,7.35,7.35,0,0,1,2.84,4.11h5.09a12,12,0,0,0-4.49-7.07,14.06,14.06,0,0,0-8.66-2.55A14.11,14.11,0,0,0,46.21,10a12.77,12.77,0,0,0-4.92,5.12,16.15,16.15,0,0,0-1.77,7.73,16.38,16.38,0,0,0,1.77,7.8,12.64,12.64,0,0,0,4.92,5.14,14,14,0,0,0,7.2,1.82A13.72,13.72,0,0,0,62,35a12.49,12.49,0,0,0,4.57-7H61.47a7.39,7.39,0,0,1-2.86,4.16,8.79,8.79,0,0,1-5.2,1.46,8.34,8.34,0,0,1-6.55-2.81q-2.51-2.8-2.5-7.95T46.86,15A8.35,8.35,0,0,1,53.41,12.2Z"/><path class="cls-1" d="M94.18,13.86A10.83,10.83,0,0,0,90.07,9.8a12.71,12.71,0,0,0-6.5-1.61A13.36,13.36,0,0,0,76.68,10a12.83,12.83,0,0,0-4.86,5.12,16,16,0,0,0-1.77,7.67,16.34,16.34,0,0,0,1.77,7.7,13.12,13.12,0,0,0,4.83,5.25,12.93,12.93,0,0,0,6.87,1.87A12.51,12.51,0,0,0,90,36a11.25,11.25,0,0,0,4.19-4.14v5.31H99V8.66H94.18ZM92.88,28.5a9.2,9.2,0,0,1-3.51,3.69,9.59,9.59,0,0,1-4.87,1.27,9.4,9.4,0,0,1-4.83-1.27,9.22,9.22,0,0,1-3.49-3.69,11.93,11.93,0,0,1-1.3-5.7,11.65,11.65,0,0,1,1.3-5.61,9,9,0,0,1,3.49-3.64A9.58,9.58,0,0,1,84.5,12.3a9.69,9.69,0,0,1,4.87,1.27,9.27,9.27,0,0,1,3.51,3.67,11.69,11.69,0,0,1,1.3,5.62A11.8,11.8,0,0,1,92.88,28.5Z"/><path class="cls-1" d="M119.81,8.14a11.82,11.82,0,0,0-5.33,1.2,9.35,9.35,0,0,0-3.82,3.38V8.66h-4.73v28.5h4.73V21.4q0-4.47,2.21-6.81a7.79,7.79,0,0,1,5.95-2.34,7.62,7.62,0,0,1,5.83,2.26c1.42,1.51,2.13,3.68,2.13,6.53V37.16h4.68V20.36q0-5.92-3.22-9.07A11.55,11.55,0,0,0,119.81,8.14Z"/><path class="cls-1" d="M152.05,8.14a11.82,11.82,0,0,0-5.33,1.2,9.35,9.35,0,0,0-3.82,3.38V8.66h-4.73v28.5h4.73V21.4q0-4.47,2.21-6.81a7.79,7.79,0,0,1,5.95-2.34,7.61,7.61,0,0,1,5.83,2.26C158.31,16,159,18.19,159,21V37.16h4.68V20.36q0-5.92-3.22-9.07A11.55,11.55,0,0,0,152.05,8.14Z"/><path class="cls-1" d="M192.77,8.66v5.2a10.76,10.76,0,0,0-4.11-4.06,12.69,12.69,0,0,0-6.5-1.61A13.36,13.36,0,0,0,175.27,10a12.9,12.9,0,0,0-4.86,5.12,16,16,0,0,0-1.77,7.67,16.34,16.34,0,0,0,1.77,7.7,13.19,13.19,0,0,0,4.83,5.25,12.93,12.93,0,0,0,6.87,1.87A12.51,12.51,0,0,0,188.58,36a11.18,11.18,0,0,0,4.19-4.14v5.31h4.78V8.66Zm-1.3,19.84A9.2,9.2,0,0,1,188,32.19a9.58,9.58,0,0,1-4.86,1.27,9.43,9.43,0,0,1-4.84-1.27,9.13,9.13,0,0,1-3.48-3.69,11.82,11.82,0,0,1-1.3-5.7,11.54,11.54,0,0,1,1.3-5.61,8.93,8.93,0,0,1,3.48-3.64,10,10,0,0,1,9.7,0,9.27,9.27,0,0,1,3.51,3.67,11.69,11.69,0,0,1,1.3,5.62A11.8,11.8,0,0,1,191.47,28.5Z"/><path d="M224.05,10.12A13.88,13.88,0,0,0,217,8.35a14.56,14.56,0,0,0-7.23,1.77,12.31,12.31,0,0,0-4.94,5.09A16.26,16.26,0,0,0,203,23a15.87,15.87,0,0,0,1.8,7.72,12.69,12.69,0,0,0,5,5.1A14.41,14.41,0,0,0,217,37.57,13.59,13.59,0,0,0,225.5,35,12.09,12.09,0,0,0,230,28.16H226.1a8.1,8.1,0,0,1-3.2,4.63,10,10,0,0,1-6,1.71,10.79,10.79,0,0,1-5-1.17,9.22,9.22,0,0,1-3.7-3.45,11.61,11.61,0,0,1-1.56-5.52h23.56c.07-.65.1-1.61.1-2.86a13.62,13.62,0,0,0-1.63-6.63A12.34,12.34,0,0,0,224.05,10.12ZM206.7,21.4a10.38,10.38,0,0,1,3.18-7.33,9.91,9.91,0,0,1,6.91-2.6,11,11,0,0,1,5,1.14A8.67,8.67,0,0,1,225.4,16a10.09,10.09,0,0,1,1.27,5.41Z"/><polygon points="254.86 8.76 251.06 8.76 244.04 20.05 236.81 8.76 232.7 8.76 241.75 22.96 232.6 37.16 236.45 37.16 243.52 25.72 250.85 37.16 254.96 37.16 245.81 22.8 254.86 8.76"/><rect x="258.86" y="8.76" width="3.64" height="28.39"/><polygon points="274.46 8.76 274.46 0 270.77 0 270.77 8.76 265.23 8.76 265.23 11.83 270.77 11.83 270.77 37.16 274.46 37.16 274.46 11.83 279.96 11.83 279.96 8.76 274.46 8.76"/><rect x="258.83" width="3.69" height="5.66"/></g></g></svg>